<svg width="52" height="41" viewBox="0 0 52 41" fill="none" xmlns="http://www.w3.org/2000/svg">
<rect width="52" height="41" rx="5" fill="#124989"/>
<path d="M29.7939 9.73016C26.6572 10.7707 24.5993 13.3286 23.6204 17.4039C22.1521 23.5168 20.3323 24.2964 14.408 22.1221C16.5356 26.1924 20.8481 27.8244 23.6204 27.8244C26.3927 27.8244 33.5729 23.8266 32.7501 16.2276C32.036 14.0143 31.0506 11.8485 29.7939 9.73016Z" fill="#D8D8D8"/>
<mask id="mask0_271_368" style="mask-type:luminance" maskUnits="userSpaceOnUse" x="14" y="9" width="19" height="19">
<path d="M29.7939 9.73016C26.6572 10.7707 24.5993 13.3286 23.6204 17.4039C22.1521 23.5168 20.3323 24.2964 14.408 22.1221C16.5356 26.1924 20.8481 27.8244 23.6204 27.8244C26.3927 27.8244 33.5729 23.8266 32.7501 16.2276C32.036 14.0143 31.0506 11.8485 29.7939 9.73016Z" fill="white"/>
</mask>
<g mask="url(#mask0_271_368)">
<path d="M42.8 3.09998H9.20001V37.9H42.8V3.09998Z" fill="#FF9800"/>
</g>
<path d="M31.8508 24.5167L39.5941 32.5497C40.1353 33.1102 40.1353 34.0191 39.5941 34.5796C39.0529 35.1401 38.1754 35.1401 37.6342 34.5796L29.8925 26.5483C28.0139 28.0632 25.6521 28.9656 23.0868 28.9656C16.9637 28.9656 12 23.8246 12 17.4828C12 11.141 16.9637 6 23.0868 6C29.2099 6 34.1737 11.141 34.1737 17.4828C34.1737 20.133 33.3068 22.5735 31.8508 24.5167ZM23.0868 26.0949C27.6792 26.0949 31.402 22.2391 31.402 17.4828C31.402 12.7265 27.6792 8.8707 23.0868 8.8707C18.4945 8.8707 14.7717 12.7265 14.7717 17.4828C14.7717 22.2391 18.4945 26.0949 23.0868 26.0949Z" fill="black"/>
<mask id="mask1_271_368" style="mask-type:luminance" maskUnits="userSpaceOnUse" x="12" y="6" width="28" height="29">
<path d="M31.8508 24.5167L39.5941 32.5497C40.1353 33.1102 40.1353 34.0191 39.5941 34.5796C39.0529 35.1401 38.1754 35.1401 37.6342 34.5796L29.8925 26.5483C28.0139 28.0632 25.6521 28.9656 23.0868 28.9656C16.9637 28.9656 12 23.8246 12 17.4828C12 11.141 16.9637 6 23.0868 6C29.2099 6 34.1737 11.141 34.1737 17.4828C34.1737 20.133 33.3068 22.5735 31.8508 24.5167ZM23.0868 26.0949C27.6792 26.0949 31.402 22.2391 31.402 17.4828C31.402 12.7265 27.6792 8.8707 23.0868 8.8707C18.4945 8.8707 14.7717 12.7265 14.7717 17.4828C14.7717 22.2391 18.4945 26.0949 23.0868 26.0949Z" fill="white"/>
</mask>
<g mask="url(#mask1_271_368)">
<path d="M42.8 3.09998H9.20001V37.9H42.8V3.09998Z" fill="white"/>
</g>
</svg>
